<?xml version="1.0" encoding="utf-8"?>
<!-- Svg Vector Icons : http://www.onlinewebfonts.com/icon -->
<!DOCTYPE svg PUBLIC "-//W3C//DTD SVG 1.1//EN" "http://www.w3.org/Graphics/SVG/1.1/DTD/svg11.dtd">
<svg version="1.1" xmlns="http://www.w3.org/2000/svg" xmlns:xlink="http://www.w3.org/1999/xlink" x="0px" y="0px" viewBox="0 0 1000 1000" enable-background="new 0 0 1000 1000" xml:space="preserve">
<metadata> Svg Vector Icons : http://www.onlinewebfonts.com/icon </metadata>
<g><path d="M931,343.2c-0.1-4.9-2-9.9-5.7-13.7L788.2,172.3c-4.5-4.5-10.7-6.4-16.5-5.5H323.6c-32.5,0-58.8,26.3-58.8,58.8v705.6c0,32.5,26.3,58.8,58.8,58.8h548.8c32.5,0,58.8-26.3,58.8-58.8v-588H931z M774.4,215.9l111,127.3H794c-10.8,0-19.6-8.8-19.6-19.6V215.9z M892,931.2c0,10.8-8.8,19.6-19.6,19.6H323.6c-10.8,0-19.6-8.8-19.6-19.6V225.6c0-10.8,8.8-19.6,19.6-19.6h411.6v117.6c0,32.5,26.3,58.8,58.8,58.8h98V931.2z M108,735.2V68.8c0-10.8,8.8-19.6,19.6-19.6h450.8c10.8,0,19.6,8.8,19.6,19.6v58.8h39.2V68.8c0-32.5-26.3-58.8-58.8-58.8H127.6c-32.5,0-58.8,26.3-58.8,58.8v666.4c0,32.5,26.3,58.8,58.8,58.8h98v-39.2h-98C116.8,754.8,108,746,108,735.2z M617.6,460.8h-39.2v98h-98V598h98v98h39.2v-98h98v-39.2h-98V460.8z"/></g>
</svg>