<?xml version="1.0" encoding="utf-8"?>
<!-- Svg Vector Icons : http://www.onlinewebfonts.com/icon -->
<!DOCTYPE svg PUBLIC "-//W3C//DTD SVG 1.1//EN" "http://www.w3.org/Graphics/SVG/1.1/DTD/svg11.dtd">
<svg version="1.1" xmlns="http://www.w3.org/2000/svg" xmlns:xlink="http://www.w3.org/1999/xlink" x="0px" y="0px" viewBox="0 0 1000 1000" enable-background="new 0 0 1000 1000" xml:space="preserve">
<metadata> Svg Vector Icons : http://www.onlinewebfonts.com/icon </metadata>
<g><path d="M809.4,680.6H905v-74.4h-95.6V680.6z M830.7,627.5h53.1v31.9h-53.1V627.5z"/><path d="M681.9,680.6h95.6v-74.4h-95.6V680.6z M703.2,627.5h53.1v31.9h-53.1V627.5z"/><path d="M809.4,818.7H905v-74.4h-95.6V818.7z M830.7,765.6h53.1v31.9h-53.1V765.6z"/><path d="M450,616.7c59.1-31.1,99.4-93.1,99.4-164.5c0-102.7-83.2-185.9-185.9-185.9c-102.7,0-185.9,83.2-185.9,185.9c0,71.2,40.1,133,98.9,164.2C152.8,646.2,55.5,738,22.9,855c-0.4,1.1-7.4,21.5-12.9,59.3h51c17.8-110.8,103.4-210.8,212.5-247.5l22.2,46.4l-34,201.1h21.6l31.9-188.5l0,0l0.6-2.7h92.4l0.6,2.6l31.9,188.6h21.6l-34.1-201.1l22.6-47.2c108.9,36.1,192,136.2,209.4,248.2h53.7c-3.2-33.7-10.7-57.5-10.7-57.5C672.2,737.2,575.2,647.2,450,616.7z M230.7,456.6c0-73.3,59.4-132.8,132.8-132.8s132.8,59.5,132.8,132.8c0,73.3-59.4,132.8-132.8,132.8S230.7,530,230.7,456.6z M409.2,701.8h-94.4l-20.5-41.3c22.3-5.7,45.4-8.8,69-8.8c22.9,0,45.2,2.9,66.7,8.2L409.2,701.8z"/><path d="M766.9,489.4V85.7H352.6v143.7c17.4-2,38.3-0.2,53.1,4.2v-94.7h308.1v350.6v31.9h-85v159.1c5.6,5.5,13,13.2,21.2,23V542.5h286.8v361.2H990V489.4H766.9z"/><path d="M713.6,765.6h42.7v31.9h-31.3c2.1,6.9,4.1,13.9,5.9,21.2h46.7v-74.4h-73.4C707.4,751.1,710.6,758.2,713.6,765.6z"/><path d="M480.1,797.5h106.2v21.2H480.1V797.5z"/><path d="M480.1,839.9h106.2v10.6H480.1V839.9z"/><path d="M681.9,202.5H575.7v74.4h106.2V202.5z M660.7,255.7h-63.7v-31.9h63.7V255.7z"/><path d="M543.8,202.5H437.6v74.4h106.2V202.5z M522.6,255.7h-63.7v-31.9h63.7V255.7z"/><path d="M575.7,415h106.2v-74.4H575.7V415z M596.9,361.9h63.7v31.9h-63.7V361.9z"/></g>
</svg>