<?xml version="1.0" encoding="utf-8"?>
<!-- Svg Vector Icons : http://www.onlinewebfonts.com/icon -->
<!DOCTYPE svg PUBLIC "-//W3C//DTD SVG 1.1//EN" "http://www.w3.org/Graphics/SVG/1.1/DTD/svg11.dtd">
<svg version="1.1" xmlns="http://www.w3.org/2000/svg" xmlns:xlink="http://www.w3.org/1999/xlink" x="0px" y="0px" viewBox="0 0 1000 1000" enable-background="new 0 0 1000 1000" xml:space="preserve">
<metadata> Svg Vector Icons : http://www.onlinewebfonts.com/icon </metadata>
<g><g transform="translate(0.000000,511.000000) scale(0.100000,-0.100000)"><path d="M4363.1,4762.4l-7.7-245l-165.9-56.2c-91.9-30.6-214.4-81.7-273.1-112.3l-109.7-53.6l48.5-122.5c25.5-66.4,122.5-306.3,214.4-533.4c91.9-229.7,158.2-416,150.6-413.4c-10.2,0-183.8,188.9-387.9,418.5l-370.1,418.5l-122.5-119.9c-342-331.8-604.8-885.6-604.8-1278.6V2560h-102.1h-102.1v-204.2v-204.2h313.9h311.4l2.6-339.4c0-400.7,68.9-699.3,250.1-1079.5C4049.2-617.3,5251.2-890.4,6141.8,110c426.2,479.8,717.1,1311.8,661,1883.4l-17.9,158.2h324.1h321.6v204.2V2560h-102.1c-97,0-99.5,2.6-112.3,97c-74,507.9-206.7,826.9-479.8,1151c-257.8,303.7-211.8,311.4-581.9-102.1c-296-334.3-484.9-528.3-454.3-469.6c33.2,61.3,428.8,1033.6,428.8,1054c0,28.1-306.3,168.4-454.3,206.7l-107.2,30.6v239.9V5010h-599.7h-597.2L4363.1,4762.4z"/><path d="M3822-734.7c-566.6-81.7-1074.4-344.5-1472.6-755.4c-234.8-242.4-375.2-446.6-525.7-763.1c-201.6-426.2-265.4-778.4-301.1-1684.4c-20.4-472.1,2.6-566.6,173.5-717.1c125.1-109.7,232.2-135.3,561.5-135.3h273.1v1237.8v1237.8H2939h408.3v635.5c0,349.6,7.7,655.9,15.3,678.8c25.5,61.3,153.1,117.4,227.1,99.6c35.7-7.7,86.8-46,114.8-79.1c48.5-61.2,51-104.6,51-699.3v-635.5h1225h1225v635.5c0,349.6,7.6,655.9,15.3,678.8c25.5,61.3,153.1,117.4,227.1,99.6c35.7-7.7,86.8-46,114.9-79.1c48.5-61.2,51-104.6,51-699.3v-635.5h408.3h408.3v-1237.8V-4790h262.9c311.4,0,423.7,28.1,543.6,132.7c173.6,153.1,191.4,222,227.1,875.4c23,408.3,25.5,655.9,7.7,814.1c-125,1153.5-1084.6,2087.6-2291.8,2235.6C5924.9-701.6,4038.9-704.1,3822-734.7z"/><path d="M2939-3769.2V-4790h2041.7h2041.7v1020.8v1020.8h-204.2H6614v-344.6c0-334.3-2.5-349.6-63.8-408.3c-81.7-84.2-199.1-84.2-280.7,0c-61.2,58.7-63.8,74-63.8,408.3v344.6h-1225h-1225v-344.6c0-334.3-2.6-349.6-63.8-408.3c-81.7-84.2-199.1-84.2-280.7,0c-61.2,58.7-63.8,74-63.8,408.3v344.6h-204.2H2939V-3769.2z M3702.1-3835.5c163.3-206.7-107.2-464.5-290.9-278.2c-135.2,132.7-45.9,344.5,142.9,344.5C3628.1-3769.2,3661.2-3784.5,3702.1-3835.5z M6555.3-3825.3c127.6-120,30.6-352.2-145.5-352.2c-173.5,0-268,222-148,349.6C6333.3-3751.3,6473.6-3748.7,6555.3-3825.3z"/></g></g>
</svg>