<?xml version="1.0" encoding="utf-8"?>
<!-- Svg Vector Icons : http://www.onlinewebfonts.com/icon -->
<!DOCTYPE svg PUBLIC "-//W3C//DTD SVG 1.1//EN" "http://www.w3.org/Graphics/SVG/1.1/DTD/svg11.dtd">
<svg version="1.1" xmlns="http://www.w3.org/2000/svg" xmlns:xlink="http://www.w3.org/1999/xlink" x="0px" y="0px" viewBox="0 0 1000 1000" enable-background="new 0 0 1000 1000" xml:space="preserve">
<metadata> Svg Vector Icons : http://www.onlinewebfonts.com/icon </metadata>
<g><g transform="translate(0.000000,511.000000) scale(0.100000,-0.100000)"><path d="M4790.6,4517.5c-168.1-31.8-413.5-168.1-561.2-309c-125-118.1-197.7-236.3-699.8-1120.1c-309-543-1183.8-2072.1-1942.6-3396.8C828.1-1633,189.6-2764.6,169.2-2823.6c-104.5-311.3-90.9-590.7,43.2-877c150-315.8,461.2-543,817.9-595.3c222.7-31.8,7763.7-29.5,7963.7,2.3c424.9,65.9,774.8,393.1,874.7,817.9c70.4,297.7,25,536.2-165.8,881.6C9596-2398.7,8001,391.4,6183.3,3565.5c-334,581.7-445.3,720.3-665.7,838.4C5283.6,4528.8,5042.8,4567.5,4790.6,4517.5z M5245,3929c43.2-22.7,106.8-70.4,140.9-106.8c34.1-34.1,538.5-897.5,1122.4-1915.4C7089.9,889,7951-615.2,8421.4-1433.1c468.1-818,870.2-1529.1,892.9-1579.1c47.7-102.2,54.5-274.9,18.2-406.7c-34.1-127.2-229.5-313.5-361.3-349.9c-79.5-22.7-967.9-27.3-4010.2-22.7l-3908,6.8l-106.8,52.3c-136.3,68.2-254.5,202.2-290.8,336.3c-34.1,122.7-18.2,315.8,34.1,420.3c43.2,84.1,2651.5,4651,3405.9,5959.7c493,854.3,520.3,890.7,745.2,970.2C4979.1,4004,5115.5,3994.9,5245,3929z"/><path d="M3729.5,1747.8c-234-93.2-393.1-311.3-411.2-570.3c-15.9-215.8,38.6-361.3,186.3-508.9c138.6-138.6,274.9-193.1,488.5-193.1c447.6,0,754.3,443.1,608.9,877C4483.8,1695.6,4072.6,1881.9,3729.5,1747.8z"/><path d="M5949.3,1141.2c-579.4-56.8-972.5-136.3-1140.6-227.2c-147.7-81.8-302.2-254.5-345.4-388.5c-38.6-122.7-286.3-1604.1-286.3-1715.4c0-97.7,54.5-170.4,161.3-218.1l88.6-40.9l-147.7-115.9c-79.5-65.9-150-118.2-154.5-118.2c-6.8,0-54.5,56.8-106.8,125c-52.3,68.2-104.5,125-111.3,125c-9.1,0-97.7-59.1-195.4-134.1l-177.2-131.8l-150,9.1c-140.9,9.1-161.3,4.5-347.6-90.9c-138.6-72.7-236.3-106.8-336.3-118.2c-170.4-20.5-238.6-72.7-338.5-261.3c-113.6-213.6-186.3-284-368.1-352.2c-268.1-102.2-345.4-215.8-381.7-558.9l-15.9-156.8h1710.9c940.6,0,1710.9,6.8,1710.9,13.6c0,47.7-81.8,279.5-113.6,327.2c-22.7,31.8-77.2,134-122.7,227.2c-118.2,243.1-175,293.1-434,386.3l-65.9,25l72.7,56.8c40.9,31.8,72.7,68.2,72.7,79.5c0,11.4-45.4,79.5-102.2,150c-54.5,72.7-93.2,136.3-84.1,145.4c9.1,6.8,279.5,224.9,602.1,486.2l588.5,470.3l63.6-61.3l65.9-63.6l-284-309c-156.8-170.4-302.2-338.5-322.6-377.1c-59.1-106.8-50-361.3,15.9-488.5c29.5-56.8,70.4-122.7,93.2-147.7c22.7-25,181.8-304.5,354.4-622.6c336.3-615.7,372.6-661.2,531.7-661.2c43.2,0,104.5,13.6,136.3,29.5c72.7,36.4,159.1,165.9,159.1,238.6c0,31.8-138.6,331.7-306.7,665.7c-406.7,811.1-406.7,797.5,13.6,1122.4c138.6,106.8,259,193.1,268.1,193.1c9.1,0,38.6-213.6,68.2-474.9c47.7-440.8,61.3-515.8,197.7-983.8c81.8-279.5,165.9-531.7,188.6-563.5c59.1-84.1,181.8-159,254.5-159c38.6,0,93.2,25,138.6,65.9c65.9,59.1,75,79.5,81.8,220.4c9.1,143.1-4.5,195.4-140.9,615.7c-170.4,518-170.4,527.1-125,1133.8c20.4,254.5,20.4,384,2.3,511.2c-43.2,274.9-65.9,331.7-211.3,490.8L6540.1-338l68.2,77.2C6853.6,21,6967.2,714,6805.9,957.1c-29.5,43.2-102.2,102.2-172.7,138.6c-113.6,56.8-143.1,61.4-363.5,56.8C6137.9,1152.5,5992.5,1145.7,5949.3,1141.2z M6353.8,584.5c-6.8-15.9-45.4-129.5-84.1-249.9c-40.9-122.7-81.8-222.7-90.9-222.7c-11.4,0-104.5,88.6-209,197.7l-188.6,197.7L5997,555C6251.5,616.3,6367.4,623.1,6353.8,584.5z M5095-522c111.3-111.3,195.4-211.3,188.6-222.7c-22.7-36.3-583.9-486.2-583.9-468c0,11.4,36.4,206.7,79.5,438.5c43.2,231.8,79.5,427.2,79.5,438.5C4858.7-294.8,4906.4-333.4,5095-522z"/></g></g>
</svg>