<?xml version="1.0" encoding="utf-8"?>
<!-- Generator: Adobe Illustrator 16.0.0, SVG Export Plug-In . SVG Version: 6.00 Build 0)  -->
<!DOCTYPE svg PUBLIC "-//W3C//DTD SVG 1.0//EN" "http://www.w3.org/TR/2001/REC-SVG-20010904/DTD/svg10.dtd">
<svg version="1.0" id="Layer_1" xmlns="http://www.w3.org/2000/svg" xmlns:xlink="http://www.w3.org/1999/xlink" x="0px" y="0px"
	 width="100px" height="100px" viewBox="0 0 100 100" enable-background="new 0 0 100 100" xml:space="preserve">
<path d="M60,69.974c-1.143,2.761-3.298,4.795-5.859,5.856c-2.559,1.062-5.521,1.146-8.283,0.003
	c-2.761-1.146-4.797-3.301-5.858-5.862L10,70v13.333C10,87.015,12.985,90,16.667,90h66.667C87.015,90,90,87.015,90,83.333V70
	L60,69.974z"/>
<path d="M76.667,10H23.333L10,63.333h80L76.667,10z M50,23.333c3.685,0,6.667,2.985,6.667,6.667S53.685,36.667,50,36.667
	c-3.685,0-6.667-2.985-6.667-6.667S46.315,23.333,50,23.333z M33.333,50c0-3.682,2.985-6.667,6.667-6.667h20
	c3.682,0,6.667,2.981,6.667,6.663L33.333,50z"/>
</svg>
