<?xml version="1.0" encoding="UTF-8"?>
<!DOCTYPE svg PUBLIC "-//W3C//DTD SVG 1.1//EN" "http://www.w3.org/Graphics/SVG/1.1/DTD/svg11.dtd">
<!-- Creator: CorelDRAW -->
<svg xmlns="http://www.w3.org/2000/svg" xml:space="preserve" width="6.82666in" height="6.82666in" style="shape-rendering:geometricPrecision; text-rendering:geometricPrecision; image-rendering:optimizeQuality; fill-rule:evenodd; clip-rule:evenodd"
viewBox="0 0 6.82666 6.82666"
 xmlns:xlink="http://www.w3.org/1999/xlink">
 <defs>
  <style type="text/css">
   <![CDATA[
    .fil11 {fill:none}
    .fil9 {fill:#202020}
    .fil6 {fill:#2F2F2F}
    .fil2 {fill:#515151}
    .fil8 {fill:#7B7B7B}
    .fil3 {fill:darkgray}
    .fil4 {fill:#BCBCBC}
    .fil5 {fill:#D1D1D1}
    .fil7 {fill:#F7F7F7}
    .fil10 {fill:#2F2F2F;fill-rule:nonzero}
    .fil0 {fill:#515151;fill-rule:nonzero}
    .fil1 {fill:#939393;fill-rule:nonzero}
   ]]>
  </style>
 </defs>
 <g id="Layer_x0020_1">
  <metadata id="CorelCorpID_0Corel-Layer"/>
  <path class="fil0" d="M2.29376 4.32811l0 -1.32685c0,-0.0332638 0.0269724,-0.0602362 0.0602362,-0.0602362 0.399657,0 0.761492,0.162 1.02341,0.423917 0.261917,0.261913 0.423917,0.623748 0.423917,1.02341 0,0.399661 -0.162,0.761488 -0.423917,1.02341 -0.261913,0.261913 -0.623748,0.423913 -1.02341,0.423913 -0.399661,0 -0.761492,-0.162 -1.02341,-0.423913 -0.261913,-0.261917 -0.423913,-0.623744 -0.423913,-1.02341 0,-0.0332638 0.0269724,-0.0602362 0.0602362,-0.0602362l1.32685 0z"/>
  <path class="fil1" d="M2.16927 4.28007l-1.27216 -0.363469 0.0164685 -0.057878 -0.0165472 0.0579134c-0.0319803,-0.0091378 -0.0505079,-0.0424764 -0.0413701,-0.0744606 0.00026378,-0.000913386 0.000543307,-0.00181102 0.00084252,-0.00270079 0.0650394,-0.225866 0.185209,-0.427622 0.345409,-0.589945 0.160909,-0.163043 0.362075,-0.286228 0.588209,-0.354091l-2.75591e-005 -8.26772e-005c0.0318622,-0.00955906 0.0654449,0.00852362 0.0750039,0.0403858 0.000307087,0.00101575 0.00057874,0.00204331 0.000834646,0.00306693l0.380051 1.26685 8.26772e-005 -2.75591e-005c0.00955906,0.0318583 -0.00852362,0.0654409 -0.0403858,0.0750039 -0.0123819,0.00371654 -0.0250236,0.00325197 -0.0364134,-0.000566929z"/>
  <rect class="fil2" x="4.01102" y="3.79742" width="0.428705" height="1.68775"/>
  <rect class="fil2" x="4.63385" y="3.79742" width="0.428705" height="1.68775"/>
  <path class="fil3" d="M4.32891 2.00694l0.41576 0c0.210571,0 0.382843,0.0825472 0.382843,0.293106l0 1.51646 -1.18144 0 0 -1.51646c0,-0.210571 0.172272,-0.293106 0.382843,-0.293106z"/>
  <rect class="fil4" x="4.38876" y="1.75575" width="0.2964" height="0.378112"/>
  <path class="fil4" d="M4.85541 1.6509c0,0 0.156618,-0.19515 0.0806378,-0.237575 0,0 -0.170346,0.00462598 -0.0806378,0.237575z"/>
  <path class="fil4" d="M4.21818 1.6509c0,0 -0.156618,-0.19515 -0.0806378,-0.237575 0,0 0.170346,0.00462598 0.0806378,0.237575z"/>
  <ellipse class="fil5" cx="4.53679" cy="1.45212" rx="0.358922" ry="0.461116"/>
  <path class="fil6" d="M4.20433 1.49244c0,0 0.0903937,-0.167488 0.103752,-0.220921 0,0 0.293874,0.320591 0.534319,0.0267165l0.0133583 0.227087c0,0 0.253803,-0.507602 -0.320591,-0.534319 0,0 -0.547677,0.0133583 -0.330839,0.501437z"/>
  <polygon class="fil7" points="4.55359,2.23345 4.68973,3.08713 4.53679,3.31531 4.38385,3.08713 4.51999,2.23345 4.53679,2.23254 "/>
  <path class="fil8" d="M4.83276 2.01717c-0.0364173,-0.00580315 -0.0772598,-0.00951969 -0.119843,-0.0102283l-0.0277677 0 -0.148354 0.126917 -0.148358 -0.126917 -0.0277677 0c-0.0425827,0.000708661 -0.0834252,0.0044252 -0.119839,0.0102283l0.166492 0.249744 0.129472 -0.132854 0.129469 0.132854 0.166496 -0.249744z"/>
  <polygon class="fil7" points="4.59312,2.19187 4.53679,2.13406 4.48046,2.19187 4.53679,2.25102 "/>
  <path class="fil5" d="M5.2363 3.42594c-0.0125039,0.00181496 0.126709,-0.0112126 0.126709,-0.0112126l0.0261693 0.212445c0,0 -0.0216732,0.135484 -0.130846,0.10111 0,0 0.0202992,-0.0150118 0.0899331,-0.104402l-0.0155315 -0.0854882c0,0 -0.0553661,-0.0178425 -0.0392835,0.0733976 0,0 -0.0670472,-0.00365354 -0.0664094,-0.161752l0.00925984 -0.0240984z"/>
  <path class="fil3" d="M4.87135 2.02015c0,0 0.100453,-0.0158622 0.197996,0.0218583 0.101768,0.0393583 0.200835,0.133685 0.201213,0.198795l0.106843 1.19306 -0.169772 0.0135433 -0.127772 -0.930051 -0.120386 0.0145591 -0.088122 -0.511764z"/>
  <path class="fil5" d="M3.83728 3.42594c0.0125039,0.00181496 -0.126709,-0.0112126 -0.126709,-0.0112126l-0.0261693 0.212445c0,0 0.0216732,0.135484 0.130846,0.10111 0,0 -0.0202992,-0.0150118 -0.0899331,-0.104402l0.0155315 -0.0854882c0,0 0.0553661,-0.0178425 0.0392835,0.0733976 0,0 0.0670472,-0.00365354 0.0664094,-0.161752l-0.00925984 -0.0240984z"/>
  <path class="fil3" d="M4.20222 2.02015c0,0 -0.100453,-0.0158622 -0.197996,0.0218583 -0.101768,0.0393583 -0.200835,0.133685 -0.201213,0.198795l-0.106843 1.19306 0.169772 0.0135433 0.127772 -0.930051 0.120386 0.0145591 0.088122 -0.511764z"/>
  <path class="fil9" d="M4.43622 5.3295c-0.00217717,0.123677 -0.00435433,0.247354 -0.0065315,0.371028 0,0 -0.46839,0.118315 -0.46515,-0.0453819 0,0 0.097248,-0.301453 0.129657,-0.351693 0,0 0.163693,-0.108591 0.342024,0.0260472z"/>
  <path class="fil9" d="M4.63952 5.3295c0.0021811,0.123677 0.00435433,0.247354 0.00653543,0.371028 0,0 0.46839,0.118315 0.46515,-0.0453819 0,0 -0.097248,-0.301453 -0.129657,-0.351693 0,0 -0.163693,-0.108591 -0.342028,0.0260472z"/>
  <g id="_506431112">
   <polygon id="_506430968" class="fil6" points="4.69407,3.73235 4.69407,4.60511 5.97333,4.60511 5.97333,3.73235 "/>
   <path id="_506430608" class="fil10" d="M5.08841 3.71588l0.490571 0 0 -0.032689c0,-0.00892126 -0.00370079,-0.0170906 -0.00964961,-0.0230394l-3.93701e-006 3.93701e-006c-0.000653543,-0.000653543 -0.0012874,-0.00131496 -0.00190551,-0.00199213 -0.00562205,-0.00476378 -0.013,-0.00766142 -0.0211299,-0.00766142l-0.425193 0c-0.00892126,0 -0.0170906,0.00370079 -0.0230394,0.00964961 -0.00594882,0.00594882 -0.00964961,0.0141181 -0.00964961,0.0230394l0 0.032689zm0.550807 0.120472l-0.611043 0c-0.0332638,0 -0.0602362,-0.0269724 -0.0602362,-0.0602362l0 -0.0929252c0,-0.0421811 0.0172165,-0.0804882 0.0449449,-0.108217 0.0277283,-0.0277283 0.0660354,-0.0449449 0.108217,-0.0449449l0.425193 0c0.0398425,0 0.0763622,0.0155591 0.103787,0.0409252 0.00152756,0.00125591 0.00300394,0.00259055 0.00443307,0.00401575l-3.93701e-006 3.93701e-006c0.0277283,0.0277283 0.0449449,0.0660354 0.0449449,0.108217l0 0.0929252c0,0.0332638 -0.0269724,0.0602362 -0.0602362,0.0602362z"/>
  </g>
 </g>
 <rect class="fil11" width="6.82666" height="6.82666"/>
</svg>
