<svg xmlns="http://www.w3.org/2000/svg" viewBox="0 0 256 256"><defs><style>.cls-1{fill:#1d384d;}</style></defs><title>euro</title><g id="icons_without_caption" data-name="icons without caption"><g id="EURO"><path class="cls-1" d="M132.77,155.26A27.29,27.29,0,1,1,160.07,128,27.32,27.32,0,0,1,132.77,155.26Zm0-50.58A23.29,23.29,0,1,0,156.07,128,23.32,23.32,0,0,0,132.77,104.68Z"/><path class="cls-1" d="M212.64,204.44a34.67,34.67,0,1,1,34.67-34.67A34.71,34.71,0,0,1,212.64,204.44Zm0-65.33a30.67,30.67,0,1,0,30.67,30.67A30.7,30.7,0,0,0,212.64,139.11Z"/><path class="cls-1" d="M223.56,180.54a13.85,13.85,0,0,1-22.46-8.89h18V167.9h-18a13.85,13.85,0,0,1,21.3-9.73l2.06-3.14A17.62,17.62,0,0,0,197.3,167.9h-4.81v3.75h4.81a17.62,17.62,0,0,0,28.62,11.8Z"/><path class="cls-1" d="M142.5,137.41a12.16,12.16,0,0,1-19.71-7.8h15.77v-3.29H122.79a12.16,12.16,0,0,1,18.69-8.54l1.8-2.76a15.46,15.46,0,0,0-23.82,11.3h-4.22v3.29h4.22A15.46,15.46,0,0,0,144.58,140Z"/><path class="cls-1" d="M204.27,82.47V67H186.71V51.56H8.7v91H26.26V158H43.82v15.46H178.2a34.52,34.52,0,0,1-.2-3.69v-.31H68.91a23.18,23.18,0,0,0-18.67-21.13,21.34,21.34,0,0,0-2.42-.34V107.54A23.17,23.17,0,0,0,68.88,86.47H196.77a9.25,9.25,0,0,0,.1.92,22.35,22.35,0,0,0,1,4.35,22.8,22.8,0,0,0,2.37,5,23.1,23.1,0,0,0,17.56,10.78v28a33,33,0,0,1,4,.84V82.47ZM182.66,55.56V67H171.1a19.13,19.13,0,0,1-5.44-11.46Zm-170,0H29.75a19.19,19.19,0,0,1-17.05,17Zm13.56,82.57H12.7v-17A19.17,19.17,0,0,1,26.26,129Zm0-15.13a23.07,23.07,0,0,0-13.56-5.93V76.62a23.07,23.07,0,0,0,13.56-5.93Zm7.5-67.44H161.65A22.83,22.83,0,0,0,165.9,67H29.52A22.91,22.91,0,0,0,33.76,55.56Zm10.06,82.9a23.13,23.13,0,0,0-11.14-5.59,21.38,21.38,0,0,0-2.42-.34V92.08a23.07,23.07,0,0,0,13.56-5.93ZM30.26,88.06V71h17A19.18,19.18,0,0,1,30.26,88.06Zm13.56,65.53H30.26V136.54a19.23,19.23,0,0,1,12,6,17.94,17.94,0,0,1,1.56,1.9Zm7.4-.92A19.24,19.24,0,0,1,64.87,169H47.82V152A19.12,19.12,0,0,1,51.22,152.67Zm-3.4-49.15v-17H64.87A19.18,19.18,0,0,1,47.82,103.52Zm-.74-21A22.78,22.78,0,0,0,51.32,71H179.21a9.11,9.11,0,0,0,.1.91,21.8,21.8,0,0,0,1,4.35,22.77,22.77,0,0,0,2.37,5c.24.4.51.8.79,1.18Zm141.57,0a18.92,18.92,0,0,1-2-2.37,18.52,18.52,0,0,1-1.92-3.39A18.77,18.77,0,0,1,183.22,71h17V82.47Zm15.57,13.09a19.28,19.28,0,0,1-3.44-9.09h17v17A19.13,19.13,0,0,1,204.22,95.56Z"/></g></g></svg>