<?xml version="1.0" encoding="utf-8"?>
<!-- Generator: Adobe Illustrator 19.0.1, SVG Export Plug-In . SVG Version: 6.00 Build 0)  -->
<svg version="1.1" id="calendars" xmlns="http://www.w3.org/2000/svg" xmlns:xlink="http://www.w3.org/1999/xlink" x="0px" y="0px"
	 viewBox="0 0 128 128" style="enable-background:new 0 0 128 128;" xml:space="preserve">
<style type="text/css">
	.st0{display:none;}
	.st1{display:inline;}
	.st2{fill:#232323;}
	.st3{display:inline;fill:#FFFFFF;}
	.st4{font-family:'Helvetica-Bold';}
	.st5{font-size:59.0354px;}
	.st6{display:inline;fill-rule:evenodd;clip-rule:evenodd;fill:#232323;}
	.st7{display:inline;fill:#232323;}
	.st8{font-size:48.4318px;}
	.st9{font-size:41.5135px;}
	.st10{font-size:22.3771px;}
	.st11{font-size:57.5413px;}
	.st12{font-size:19.1804px;}
	.st13{fill-rule:evenodd;clip-rule:evenodd;fill:#232323;}
	.st14{font-size:18.2237px;}
</style>
<g id="calendar_:_9" class="st0">
	<g id="top_2_" class="st1">
		<g>
			<path class="st2" d="M106.8,71.4c-2.2,0-4.6-1.6-4.6-4.9c0-2.1,0.8-4.9,4.6-4.9c2.3,0,7.2,0,10.4,0V12.3l-3.3-3.3H14.1l-3.3,3.3
				v49.2c3.3,0,8.1,0,10.4,0c3.7,0,4.6,2.8,4.6,4.9c0,3.3-2.4,4.9-4.6,4.9c-1.4,0-6.8,0-10.4,0v44.3l3.3,3.3h99.7l3.3-3.3V71.4
				C113.6,71.4,108.2,71.4,106.8,71.4z"/>
		</g>
	</g>
	<g id="border_2_" class="st1">
		<g>
			<path class="st2" d="M115.5,0.9H12.5c-5.5,0-10,6-10,11.5v103.3c0,5.4,4.5,11.5,10,11.5h103.1c5.5,0,10-6,10-11.5V12.3
				C125.5,6.9,121,0.9,115.5,0.9z M118.9,63.2h-12.3c-1.5,0-2.6,1.5-2.6,3.3c0,1.8,1.2,3.3,2.6,3.3h12.3v46.1c0,3.5-1.2,4.7-4.8,4.7
				H13.9c-3.6,0-4.8-1.2-4.8-4.7V69.7h12.3c1.5,0,2.6-1.5,2.6-3.3c0-1.8-1.2-3.3-2.6-3.3H9.1V12.1c0-3.5,2.9-4.7,6.5-4.7h96.8
				c3.6,0,6.5,1.2,6.5,4.7V63.2z"/>
		</g>
	</g>
	<text transform="matrix(1.0137 0 0 1 27.4268 84.496)" class="st3 st4 st5">10</text>
</g>
<g id="calendar_:_8" class="st0">
	<path id="border_15_" class="st6" d="M128,34.6v79.6c0,5.7-4.7,12.1-10.5,12.1h-107c-5.8,0-10.5-6.4-10.5-12.1V34.6h7v79.8
		c0,3.7,1.3,5,5.1,5h103.8c3.8,0,5.1-1.3,5.1-5v-80L128,34.6z"/>
	<g id="top_1_" class="st1">
		<g>
			<path class="st2" d="M118.7,1.7H9.2C5.1,1.7,0,8.5,0,12.6v27.2h128V12.6C128,8.5,122.9,1.7,118.7,1.7z M31.6,31.1
				c-4.8,0-8.8-3.9-8.8-8.6s3.9-8.6,8.8-8.6c4.8,0,8.8,3.9,8.8,8.6S36.4,31.1,31.6,31.1z M96.4,31.1c-4.8,0-8.8-3.9-8.8-8.6
				s3.9-8.6,8.8-8.6c4.8,0,8.8,3.9,8.8,8.6S101.3,31.1,96.4,31.1z"/>
		</g>
	</g>
	<text transform="matrix(1.0137 0 0 1 17.5332 86.4843)" class="st7 st4 st8">JUL</text>
	<g id="dates" class="st1">
		<g>
			<path class="st2" d="M96.4,98.6h4.2v-3.5h-4.2V98.6z M102,98.6h4.2v-3.5H102V98.6z M107.7,98.6h4.2v-3.5h-4.2V98.6z M113.3,95.1
				v3.5h4.2v-3.5H113.3z M96,103.8h4.3v-3.5H96V103.8z M101.8,103.8h4.3v-3.5h-4.3V103.8z M107.5,103.8h4.3v-3.5h-4.3V103.8z
				 M113.2,103.8h4.3v-3.5h-4.3V103.8z M84.6,103.8h4.3v-3.5h-4.3V103.8z M90.3,103.8h4.3v-3.5h-4.3V103.8z M78.9,103.8h4.3v-3.5
				h-4.3V103.8z M96,109h4.3v-3.5H96V109z M101.8,109h4.3v-3.5h-4.3V109z M107.5,109h4.3v-3.5h-4.3V109z M113.2,109h4.3v-3.5h-4.3
				V109z M84.6,109h4.3v-3.5h-4.3V109z M90.3,109h4.3v-3.5h-4.3V109z M78.9,109h4.3v-3.5h-4.3V109z M78.9,114.2h4.2v-3.5h-4.2V114.2
				z M84.4,114.2h4.2v-3.5h-4.2V114.2z M90,114.2h4.2v-3.5H90V114.2z M95.5,114.2h4.2v-3.5h-4.2V114.2z M101.1,114.2h4.2v-3.5h-4.2
				V114.2z"/>
		</g>
	</g>
</g>
<g id="calendar_:_7_1_" class="st0">
	<g id="dates_6_" class="st1">
		<g>
			<path class="st2" d="M70.1,67.5h15.8V53.6H70.1V67.5z M94.7,53.6v13.8h15.8V53.6H94.7z M70.1,86.5h15.8V72.6H70.1V86.5z
				 M94.7,86.5h15.8V72.6H94.7V86.5z M70.1,105.5h15.8V91.7H70.1V105.5z M94.7,105.5h15.8V91.7H94.7V105.5z M21,105.5h15.8V91.7H21
				V105.5z M45.6,105.5h15.8V91.7H45.6V105.5z"/>
		</g>
	</g>
	<path id="border_14_" class="st6" d="M128,36.3v79.6c0,5.7-4.7,12.1-10.5,12.1h-107C4.7,128,0,121.6,0,115.9V36.3h7v79.8
		c0,3.7,1.3,5,5.1,5h103.8c3.8,0,5.1-1.3,5.1-5v-80L128,36.3z"/>
	<text transform="matrix(1.0137 0 0 1 19.2852 83.0233)" class="st7 st4 st9">24</text>
	<g id="top" class="st1">
		<g>
			<path class="st2" d="M29.8,0H21v24.2h8.8V0z M68.4,0h-8.8v24.2h8.8V0z M118.8,3.5h-10v22.5H96.4V3.5H70.1v22.5H57.9V3.5H31.6
				v22.5H19.3V3.5h-10C5.1,3.5,0,10.2,0,14.3v27.2h128V14.3C128,10.2,122.9,3.5,118.8,3.5z M107,0h-8.8v24.2h8.8V0z"/>
		</g>
	</g>
</g>
<g id="calendar_:_6" class="st0">
	<path id="border_13_" class="st6" d="M128,41v75.4c0,5.4-4.5,11.5-10,11.5H10c-5.5,0-10-6-10-11.5V41h6.6v75.7
		c0,3.5,1.2,4.7,4.8,4.7h105.1c3.6,0,4.8-1.2,4.8-4.7l0.1-75.7H128z"/>
	<g id="top_3_" class="st1">
		<g>
			<path class="st2" d="M119.2,9.9H8.8C4.8,9.9,0,16.3,0,20.1v16h128v-16C128,16.3,123.2,9.9,119.2,9.9z M29.9,32.8
				c-4.6,0-8.3-3.7-8.3-8.2c0-4.5,3.7-8.2,8.3-8.2c4.6,0,8.3,3.7,8.3,8.2C38.2,29.2,34.5,32.8,29.9,32.8z M98.1,32.8
				c-4.6,0-8.3-3.7-8.3-8.2c0-4.5,3.7-8.2,8.3-8.2c4.6,0,8.3,3.7,8.3,8.2C106.4,29.2,102.7,32.8,98.1,32.8z"/>
		</g>
	</g>
	<g id="dates_1_" class="st1">
		<g>
			<path class="st2" d="M13.3,68.9h21.6V55.8H13.3V68.9z M39.9,68.9h21.6V55.8H39.9V68.9z M66.5,68.9h21.6V55.8H66.5V68.9z
				 M93.1,68.9h21.6V55.8H93.1V68.9z M13.3,88.6h21.6V75.5H13.3V88.6z M39.9,88.6h21.6V75.5H39.9V88.6z M66.5,88.6h21.6V75.5H66.5
				V88.6z M93.1,88.6h21.6V75.5H93.1V88.6z M13.3,108.3h21.6V95.2H13.3V108.3z M39.9,108.3h21.6V95.2H39.9V108.3z M66.5,108.3h21.6
				V95.2H66.5V108.3z M93.1,108.3h21.6V95.2H93.1V108.3z M0,41V46h128V41H0z"/>
		</g>
	</g>
	<g id="fix" class="st1">
		<g>
			<path class="st2" d="M29.9,0c-2.7,0-3.3,2.1-3.3,4.6v18.6c0,2.6,0.6,4.6,3.3,4.6c2.7,0,3.3-2.1,3.3-4.6V4.7
				C33.2,2.1,32.7,0,29.9,0z M98.1,0c-2.7,0-3.3,2.1-3.3,4.6v18.6c0,2.6,0.6,4.6,3.3,4.6c2.7,0,3.3-2.1,3.3-4.6V4.7
				C101.4,2.1,100.8,0,98.1,0z"/>
		</g>
	</g>
</g>
<g id="calendar_:_5" class="st0">
	<path id="border_4_" class="st6" d="M13.8,0.9c-5.4,0-9.7,5.9-9.7,11.2v103.9c0,5.3,4.4,11.2,9.7,11.2h87.4l22.8-27.2V12.1
		c0-5.3-4.4-11.2-9.7-11.2v6.4c0,0,3.2,2.8,3.2,6.2v83.3H94.8v24H15.2c-3.5,0-4.7-1.2-4.7-4.6V13.4c0-3.4,3.2-6.2,3.2-6.2V0.9z"/>
	<g id="line" class="st1">
		<g>
			<path class="st2" d="M26.7,90.4h1.6v-1.6h-1.6V90.4z M30,90.4h1.6v-1.6H30V90.4z M33.2,90.4h1.6v-1.6h-1.6V90.4z M36.5,90.4h1.6
				v-1.6h-1.6V90.4z M39.7,90.4h1.6v-1.6h-1.6V90.4z M42.9,90.4h1.6v-1.6h-1.6V90.4z M46.2,90.4h1.6v-1.6h-1.6V90.4z M49.4,90.4H51
				v-1.6h-1.6V90.4z M52.7,90.4h1.6v-1.6h-1.6V90.4z M55.9,90.4h1.6v-1.6h-1.6V90.4z M59.1,90.4h1.6v-1.6h-1.6V90.4z M62.4,90.4H64
				v-1.6h-1.6V90.4z M65.6,90.4h1.6v-1.6h-1.6V90.4z M68.9,90.4h1.6v-1.6h-1.6V90.4z M72.1,90.4h1.6v-1.6h-1.6V90.4z M75.3,90.4H77
				v-1.6h-1.6V90.4z M78.6,90.4h1.6v-1.6h-1.6V90.4z M81.8,90.4h1.6v-1.6h-1.6V90.4z M85.1,90.4h1.6v-1.6h-1.6V90.4z M88.3,90.4h1.6
				v-1.6h-1.6V90.4z M91.5,90.4h1.6v-1.6h-1.6V90.4z M94.8,90.4h1.6v-1.6h-1.6V90.4z M98,88.8v1.6h1.6v-1.6H98z"/>
		</g>
	</g>
	<path id="top_18_" class="st6" d="M12.2,0.9h103.7c3.8,0,8.1,5.9,8.1,9.6v27.2H4.1V10.5C4.1,6.7,8.3,0.9,12.2,0.9z"/>
	<text transform="matrix(1.0137 0 0 1 42.9346 28.0355)" class="st3 st4 st10">Jun</text>
	<text transform="matrix(1.0137 0 0 1 28.3535 85.5741)" class="st7 st4 st11">10</text>
	<text transform="matrix(1.0137 0 0 1 42.9346 111.1483)" class="st7 st4 st12">Wed</text>
</g>
<g id="calendar_:_4">
	<g id="border_5_">
		<g>
			<path class="st2" d="M114.2,8.9v6.4c0,0,3.2,2.8,3.2,6.2v37H93.2V39.2h-3.2v19.2H65.6V39.2h-3.2v19.2H38.1V39.2h-3.2v19.2H10.5
				v-37c0-3.4,3.2-6.2,3.2-6.2V8.9C8.4,8.9,4,14.7,4,20v95.9c0,5.3,4.4,11.2,9.7,11.2h100.5c5.4,0,9.7-5.9,9.7-11.2V20
				C124,14.7,119.6,8.9,114.2,8.9z M89.9,61.6v17.6H65.6V61.6H89.9z M65.6,82.4h24.3V100H65.6V82.4z M62.4,100H38.1V82.4h24.3V100z
				 M62.4,61.6v17.6H38.1V61.6H62.4z M10.5,61.6h24.3v17.6H10.5V61.6z M10.5,82.4h24.3V100H10.5V82.4z M15.2,120.7
				c-3.5,0-4.7-1.2-4.7-4.6v-13h24.3v17.6H15.2z M38.1,120.7v-17.6h24.3v17.6H38.1z M65.6,120.7v-17.6h24.3v17.6H65.6z M117.5,116.2
				c0,3.4-1.2,4.6-4.7,4.6H93.2v-17.6h24.3V116.2z M117.5,100H93.2V82.4h24.3V100z M117.5,79.2H93.2V61.6h24.3V79.2z"/>
		</g>
	</g>
	<rect id="select_2_" x="38.1" y="61.6" class="st13" width="24.3" height="17.6"/>
	<g id="top_5_">
		<g>
			<path class="st2" d="M64.1,27.9c2.7,0,4.9-2,4.9-4.5v-18c0-2.5-2.2-4.5-4.9-4.5c-2.7,0-4.9,2-4.9,4.5v18
				C59.2,25.9,61.4,27.9,64.1,27.9z M28.2,28c2.6,0,4.7-2,4.7-4.5V5.4c0-2.5-2.1-4.5-4.7-4.5c-2.6,0-4.7,2-4.7,4.5v18.1
				C23.5,26,25.6,28,28.2,28z M115.8,8.9h-9.7v16c0,2.6-3.8,4.8-6.5,4.8c-2.7,0-6.5-2.1-6.5-4.8v-16H70.5v16c0,2.6-3.8,4.8-6.5,4.8
				c-2.7,0-6.5-2.1-6.5-4.8v-16H34.8v16c0,2.6-3.8,4.8-6.5,4.8c-2.7,0-6.5-2.1-6.5-4.8v-16h-9.7C8.3,8.9,4,14.7,4,18.4v22.4H124
				V18.4C124,14.7,119.7,8.9,115.8,8.9z M99.6,27.9c2.7,0,4.9-2,4.9-4.5v-18c0-2.5-2.2-4.5-4.9-4.5c-2.7,0-4.9,2-4.9,4.5v18
				C94.8,25.9,97,27.9,99.6,27.9z"/>
		</g>
	</g>
</g>
<g id="calendar_:_3" class="st0">
	<g id="border_6_" class="st1">
		<g>
			<path class="st2" d="M9.1,101.7c-2.8,0-3.8-1-3.8-3.7V23.5c0-2.8,2.3-5,5.1-5h80.8c2.8,0,5.1,2.3,5.1,5v34c1.8,0,3.6,0.2,5.3,0.5
				V22.3c0-4.3-3.5-9.1-7.9-9.1H7.9C3.6,13.2,0,18,0,22.3v75.5c0,4.3,3.5,9.1,7.9,9.1h60.8c-1.1-1.6-2.1-3.4-2.8-5.2H9.1z
				 M95.7,61.4c-15.7,0-28.4,12.5-28.4,28s12.7,28,28.4,28c15.7,0,28.4-12.5,28.4-28S111.3,61.4,95.7,61.4z M58,86.1V79h3.8v-5.1H58
				V53.2h-7.4L38.2,73.3V79h13.3v7.1H58z M43.1,73.9l8.4-14.3v14.3H43.1z"/>
		</g>
	</g>
	<text transform="matrix(1.0137 0 0 1 77.8574 95.2401)" class="st3 st4 st14">May</text>
	<g id="top_6_" class="st1">
		<g>
			<path class="st2" d="M93.7,13.2h-3.9v-2.8c0-2-1.7-3.7-3.8-3.7c-2.1,0-3.8,1.7-3.8,3.7v2.8h-9.5v-2.8c0-2-1.7-3.7-3.8-3.7
				c-2.1,0-3.8,1.7-3.8,3.7v2.8H54.9v-2.8c0-2-1.7-3.7-3.8-3.7c-2.1,0-3.8,1.7-3.8,3.7v2.8H37.1v-2.8c0-2-1.7-3.7-3.8-3.7
				c-2.1,0-3.8,1.7-3.8,3.7v2.8H19.4v-2.8c0-2-1.7-3.7-3.8-3.7c-2.1,0-3.8,1.7-3.8,3.7v2.8H6.6c-4.3,0-6.7,4.9-6.6,9.1v22.1h101.6
				V21C101.8,17.3,98.3,13.2,93.7,13.2z M15.6,31.5c-3.5,0-6.3-2.8-6.3-6.2c0-2,1-3.8,2.5-4.9v4.9c0,2,1.7,3.7,3.8,3.7
				c2.1,0,3.8-1.7,3.8-3.7v-4.9c1.5,1.1,2.5,2.9,2.5,4.9C21.9,28.7,19.1,31.5,15.6,31.5z M33.3,31.5c-3.5,0-6.3-2.8-6.3-6.2
				c0-2,1-3.8,2.5-4.9v4.9c0,2,1.7,3.7,3.8,3.7c2.1,0,3.8-1.7,3.8-3.7v-4.9c1.5,1.1,2.5,2.9,2.5,4.9C39.7,28.7,36.8,31.5,33.3,31.5z
				 M51.1,31.5c-3.5,0-6.3-2.8-6.3-6.2c0-2,1-3.8,2.5-4.9v4.9c0,2,1.7,3.7,3.8,3.7c2.1,0,3.8-1.7,3.8-3.7v-4.9
				c1.5,1.1,2.5,2.9,2.5,4.9C57.4,28.7,54.6,31.5,51.1,31.5z M68.9,31.5c-3.5,0-6.3-2.8-6.3-6.2c0-2,1-3.8,2.5-4.9v4.9
				c0,2,1.7,3.7,3.8,3.7c2.1,0,3.8-1.7,3.8-3.7v-4.9c1.5,1.1,2.5,2.9,2.5,4.9C75.2,28.7,72.4,31.5,68.9,31.5z M86,31.5
				c-3.5,0-6.3-2.8-6.3-6.2c0-2,1-3.8,2.5-4.9v4.9c0,2,1.7,3.7,3.8,3.7c2.1,0,3.8-1.7,3.8-3.7v-4.9c1.5,1.1,2.5,2.9,2.5,4.9
				C92.4,28.7,89.5,31.5,86,31.5z"/>
		</g>
	</g>
</g>
<g id="calendar_:_2" class="st0">
	<g id="border_7_" class="st1">
		<g>
			<path class="st2" d="M118,2.2H10c-5.5,0-10,6-10,11.5v95.1c0,5.4,4.5,11.5,10,11.5H118c5.5,0,10-6,10-11.5V13.7
				C128,8.3,123.5,2.2,118,2.2z M121.4,109.1c0,3.5-1.2,4.7-4.8,4.7H11.4c-3.6,0-4.8-1.2-4.8-4.7V15.1c0-3.5,2.9-6.3,6.5-6.3h101.8
				c3.6,0,6.5,2.8,6.5,6.3V109.1z M83.2,70.2c-1.8,0-3.3,0.3-4.7,0.8c-1.4,0.6-2.6,1.4-3.6,2.7c0.2-3.2,0.7-5.7,1.3-7.3
				c1.1-3,3.1-4.5,5.8-4.5c1.8,0,3.2,0.7,4.1,2c0.5,0.8,0.8,1.5,0.8,2.2h8.3c-0.3-3.3-1.6-6-3.9-7.9c-2.3-2-5.5-3-9.4-3
				c-2.7,0-5.1,0.6-7,1.8c-2,1.2-3.5,2.9-4.7,4.9c-1.4,2.4-2.3,5.3-2.8,8.9c-0.3,2-0.4,4.6-0.4,7.8c0,5.4,1,9.9,3,13.3
				c2.5,4.4,6.5,6.6,11.8,6.6c5,0,8.6-1.5,11-4.5c2.4-3,3.5-6.4,3.5-10.3c0-3.9-1.2-7.1-3.6-9.7C90,71.5,86.9,70.2,83.2,70.2z
				 M86,89.7c-1.1,1.4-2.5,2.1-4.4,2.1c-1.9,0-3.4-0.7-4.7-2.1c-1.2-1.4-1.8-3.3-1.8-5.5c0-2.8,0.8-4.8,2.5-6.1
				c1.1-0.8,2.3-1.3,3.8-1.3c1.8,0,3.2,0.6,4.4,1.9c1.2,1.3,1.8,3.2,1.8,5.6C87.6,86.5,87,88.3,86,89.7z M45.9,87.8
				c0.8-0.7,2.2-1.7,4.3-3.2l3.3-2.3c2.8-2,4.8-3.7,6.1-5.3c1.9-2.4,2.8-5.1,2.8-8.2c0-4-1.3-7.3-4-9.7s-6.2-3.7-10.7-3.7
				c-5.7,0-9.6,2.1-11.8,6.3c-1.2,2.2-1.8,5.1-2,8.6H42c0.1-2.3,0.4-4.1,0.9-5.1c0.9-1.9,2.6-2.8,5.2-2.8c1.9,0,3.3,0.6,4.3,1.8
				c1,1.2,1.5,2.6,1.5,4.4c0,2.2-0.9,4.2-2.6,6c-1.1,1.2-3.6,3.1-7.5,5.8c-4.4,3.1-7.2,6.1-8.4,8.8c-1.2,2.5-1.9,5.2-2,8.2h29v-7.2
				H44C44.5,89.3,45.1,88.5,45.9,87.8z"/>
		</g>
	</g>
	<g id="top_7_" class="st1">
		<g>
			<path class="st2" d="M119.2,2.5H8.8C4.8,2.5,0,8.8,0,12.6v25.7h23.3V24.9c0-4.3,2.1-7.9,6.6-7.9c4.6,0,6.7,3.5,6.7,7.9v13.4h54.9
				V24.9c0-4.3,2.1-7.9,6.6-7.9c4.6,0,6.6,3.5,6.6,7.9v13.4H128V12.6C128,8.8,123.2,2.5,119.2,2.5z"/>
		</g>
	</g>
	<g id="fix_1_" class="st1">
		<g>
			<path class="st2" d="M29.9,20.3c-2.7,0-3.3,2.1-3.3,4.6v18.6c0,2.6,0.6,4.6,3.3,4.6s3.3-2.1,3.3-4.6V24.9
				C33.2,22.4,32.7,20.3,29.9,20.3z M98.1,20.3c-2.7,0-3.3,2.1-3.3,4.6v18.6c0,2.6,0.6,4.6,3.3,4.6c2.7,0,3.3-2.1,3.3-4.6V24.9
				C101.4,22.4,100.8,20.3,98.1,20.3z"/>
		</g>
	</g>
</g>
<g id="calendar_:_1" class="st0">
	<g id="border_8_" class="st1">
		<g>
			<path class="st2" d="M19.1,50.1c-2.3,0-4.2,1.8-4.2,4.1c0,2.3,1.9,4.1,4.2,4.1c2.3,0,4.2-1.8,4.2-4.1
				C23.3,51.9,21.4,50.1,19.1,50.1z M93.9,50.1c-2.3,0-4.2,1.8-4.2,4.1c0,2.3,1.9,4.1,4.2,4.1c2.3,0,4.2-1.8,4.2-4.1
				C98.1,51.9,96.2,50.1,93.9,50.1z M64,50.1c-2.3,0-4.2,1.8-4.2,4.1c0,2.3,1.9,4.1,4.2,4.1c2.3,0,4.2-1.8,4.2-4.1
				C68.2,51.9,66.3,50.1,64,50.1z M79,50.1c-2.3,0-4.2,1.8-4.2,4.1c0,2.3,1.9,4.1,4.2,4.1c2.3,0,4.2-1.8,4.2-4.1
				C83.1,51.9,81.3,50.1,79,50.1z M108.9,50.1c-2.3,0-4.2,1.8-4.2,4.1c0,2.3,1.9,4.1,4.2,4.1c2.3,0,4.2-1.8,4.2-4.1
				C113,51.9,111.2,50.1,108.9,50.1z M49,50.1c-2.3,0-4.2,1.8-4.2,4.1c0,2.3,1.9,4.1,4.2,4.1c2.3,0,4.2-1.8,4.2-4.1
				C53.2,51.9,51.3,50.1,49,50.1z M118,9.1H10c-5.5,0-10,6-10,11.5v95.1c0,5.4,4.5,11.5,10,11.5H118c5.5,0,10-6,10-11.5V20.5
				C128,15.1,123.5,9.1,118,9.1z M121.3,115.9c0,3.5-1.2,4.7-4.8,4.7H11.4c-3.6,0-4.8-1.2-4.8-4.7V22c0-3.5,2.9-6.3,6.5-6.3h101.8
				c3.6,0,6.5,2.8,6.5,6.3V115.9z M34.1,50.1c-2.3,0-4.2,1.8-4.2,4.1c0,2.3,1.9,4.1,4.2,4.1c2.3,0,4.2-1.8,4.2-4.1
				C38.2,51.9,36.4,50.1,34.1,50.1z M49,104.2c-2.3,0-4.2,1.8-4.2,4.1c0,2.3,1.9,4.1,4.2,4.1c2.3,0,4.2-1.8,4.2-4.1
				C53.2,106,51.3,104.2,49,104.2z M49,77.9c-2.3,0-4.2,1.8-4.2,4.1c0,2.3,1.9,4.1,4.2,4.1c2.3,0,4.2-1.8,4.2-4.1
				C53.2,79.8,51.3,77.9,49,77.9z M49,91.1c-2.3,0-4.2,1.8-4.2,4.1s1.9,4.1,4.2,4.1c2.3,0,4.2-1.8,4.2-4.1S51.3,91.1,49,91.1z
				 M49,64.8c-2.3,0-4.2,1.8-4.2,4.1S46.7,73,49,73c2.3,0,4.2-1.8,4.2-4.1S51.3,64.8,49,64.8z M19.1,77.9c-2.3,0-4.2,1.8-4.2,4.1
				c0,2.3,1.9,4.1,4.2,4.1c2.3,0,4.2-1.8,4.2-4.1C23.3,79.8,21.4,77.9,19.1,77.9z M19.1,91.1c-2.3,0-4.2,1.8-4.2,4.1
				s1.9,4.1,4.2,4.1c2.3,0,4.2-1.8,4.2-4.1S21.4,91.1,19.1,91.1z M19.1,104.2c-2.3,0-4.2,1.8-4.2,4.1c0,2.3,1.9,4.1,4.2,4.1
				c2.3,0,4.2-1.8,4.2-4.1C23.3,106,21.4,104.2,19.1,104.2z M34.1,91.1c-2.3,0-4.2,1.8-4.2,4.1s1.9,4.1,4.2,4.1
				c2.3,0,4.2-1.8,4.2-4.1S36.4,91.1,34.1,91.1z M34.1,77.9c-2.3,0-4.2,1.8-4.2,4.1c0,2.3,1.9,4.1,4.2,4.1c2.3,0,4.2-1.8,4.2-4.1
				C38.2,79.8,36.4,77.9,34.1,77.9z M34.1,104.2c-2.3,0-4.2,1.8-4.2,4.1c0,2.3,1.9,4.1,4.2,4.1c2.3,0,4.2-1.8,4.2-4.1
				C38.2,106,36.4,104.2,34.1,104.2z M93.9,64.8c-2.3,0-4.2,1.8-4.2,4.1s1.9,4.1,4.2,4.1c2.3,0,4.2-1.8,4.2-4.1S96.2,64.8,93.9,64.8
				z M79,64.8c-2.3,0-4.2,1.8-4.2,4.1S76.7,73,79,73c2.3,0,4.2-1.8,4.2-4.1S81.3,64.8,79,64.8z M93.9,77.9c-2.3,0-4.2,1.8-4.2,4.1
				c0,2.3,1.9,4.1,4.2,4.1c2.3,0,4.2-1.8,4.2-4.1C98.1,79.8,96.2,77.9,93.9,77.9z M93.9,91.1c-2.3,0-4.2,1.8-4.2,4.1
				s1.9,4.1,4.2,4.1c2.3,0,4.2-1.8,4.2-4.1S96.2,91.1,93.9,91.1z M108.9,91.1c-2.3,0-4.2,1.8-4.2,4.1s1.9,4.1,4.2,4.1
				c2.3,0,4.2-1.8,4.2-4.1S111.2,91.1,108.9,91.1z M108.9,77.9c-2.3,0-4.2,1.8-4.2,4.1c0,2.3,1.9,4.1,4.2,4.1c2.3,0,4.2-1.8,4.2-4.1
				C113,79.8,111.2,77.9,108.9,77.9z M108.9,64.8c-2.3,0-4.2,1.8-4.2,4.1s1.9,4.1,4.2,4.1c2.3,0,4.2-1.8,4.2-4.1
				S111.2,64.8,108.9,64.8z M79,77.9c-2.3,0-4.2,1.8-4.2,4.1c0,2.3,1.9,4.1,4.2,4.1c2.3,0,4.2-1.8,4.2-4.1
				C83.1,79.8,81.3,77.9,79,77.9z M64,77.9c-2.3,0-4.2,1.8-4.2,4.1c0,2.3,1.9,4.1,4.2,4.1c2.3,0,4.2-1.8,4.2-4.1
				C68.2,79.8,66.3,77.9,64,77.9z M64,91.1c-2.3,0-4.2,1.8-4.2,4.1s1.9,4.1,4.2,4.1c2.3,0,4.2-1.8,4.2-4.1S66.3,91.1,64,91.1z
				 M79,91.1c-2.3,0-4.2,1.8-4.2,4.1s1.9,4.1,4.2,4.1c2.3,0,4.2-1.8,4.2-4.1S81.3,91.1,79,91.1z M64,104.2c-2.3,0-4.2,1.8-4.2,4.1
				c0,2.3,1.9,4.1,4.2,4.1c2.3,0,4.2-1.8,4.2-4.1C68.2,106,66.3,104.2,64,104.2z M64,64.8c-2.3,0-4.2,1.8-4.2,4.1S61.7,73,64,73
				c2.3,0,4.2-1.8,4.2-4.1S66.3,64.8,64,64.8z"/>
		</g>
	</g>
	<g id="top_8_" class="st1">
		<g>
			<path class="st2" d="M119.7,9.1h-6.5V5.5c0-2.6-2.1-4.7-4.8-4.7c-2.6,0-4.8,2.1-4.8,4.7v3.5h-12V5.5c0-2.6-2.1-4.7-4.8-4.7
				c-2.6,0-4.8,2.1-4.8,4.7v3.5H69.2V5.5c0-2.6-2.1-4.7-4.8-4.7c-2.6,0-4.8,2.1-4.8,4.7v3.5H46.8V5.5c0-2.6-2.1-4.7-4.8-4.7
				c-2.6,0-4.8,2.1-4.8,4.7v3.5H24.4V5.5c0-2.6-2.1-4.7-4.8-4.7c-2.6,0-4.8,2.1-4.8,4.7v3.5H8.3c-3.9,0-8.3,6-8.3,9.8v23h128v-23
				C128,15.1,123.6,9.1,119.7,9.1z M19.6,32c-4.4,0-8-3.5-8-7.8c0-2.5,1.3-4.8,3.2-6.2v6.2c0,2.6,2.1,4.7,4.8,4.7
				c2.6,0,4.8-2.1,4.8-4.7V18c1.9,1.4,3.2,3.7,3.2,6.2C27.6,28.5,24,32,19.6,32z M42,32c-4.4,0-8-3.5-8-7.8c0-2.5,1.3-4.8,3.2-6.2
				v6.2c0,2.6,2.1,4.7,4.8,4.7c2.6,0,4.8-2.1,4.8-4.7V18c1.9,1.4,3.2,3.7,3.2,6.2C50,28.5,46.4,32,42,32z M64.4,32
				c-4.4,0-8-3.5-8-7.8c0-2.5,1.3-4.8,3.2-6.2v6.2c0,2.6,2.1,4.7,4.8,4.7c2.6,0,4.8-2.1,4.8-4.7V18c1.9,1.4,3.2,3.7,3.2,6.2
				C72.4,28.5,68.8,32,64.4,32z M86.7,32c-4.4,0-8-3.5-8-7.8c0-2.5,1.3-4.8,3.2-6.2v6.2c0,2.6,2.1,4.7,4.8,4.7
				c2.6,0,4.8-2.1,4.8-4.7V18c1.9,1.4,3.2,3.7,3.2,6.2C94.7,28.5,91.2,32,86.7,32z M108.4,32c-4.4,0-8-3.5-8-7.8
				c0-2.5,1.3-4.8,3.2-6.2v6.2c0,2.6,2.1,4.7,4.8,4.7c2.6,0,4.8-2.1,4.8-4.7V18c1.9,1.4,3.2,3.7,3.2,6.2
				C116.3,28.5,112.8,32,108.4,32z"/>
		</g>
	</g>
</g>
</svg>
