<?xml version="1.0" encoding="utf-8"?>
<!-- Svg Vector Icons : http://www.onlinewebfonts.com/icon -->
<!DOCTYPE svg PUBLIC "-//W3C//DTD SVG 1.1//EN" "http://www.w3.org/Graphics/SVG/1.1/DTD/svg11.dtd">
<svg version="1.1" xmlns="http://www.w3.org/2000/svg" xmlns:xlink="http://www.w3.org/1999/xlink" x="0px" y="0px" viewBox="0 0 1000 1000" enable-background="new 0 0 1000 1000" xml:space="preserve">
<metadata> Svg Vector Icons : http://www.onlinewebfonts.com/icon </metadata>
<g><g transform="translate(0.000000,511.000000) scale(0.100000,-0.100000)"><path d="M1451.1,4971.5c-51.1-26.6-100.2-71.5-126.7-120.6l-45-79.7V102v-4671.2l45-67.5c26.6-36.8,73.6-87.9,104.2-110.4l57.2-42.9H5000h3514.1l57.2,42.9c30.7,22.5,77.7,73.6,104.3,110.4l45,67.5v3618.4c0,2765.9-6.1,3636.8-24.6,3700.2c-20.4,69.5-179.9,233.1-1099.8,1114.1C7005.4,4429.7,6492.3,4918.3,6453.5,4949l-69.5,53.2l-2424.5,6.1C1559.5,5012.4,1534.9,5012.4,1451.1,4971.5z M5960.8,3503.7c0-887.2,0-895.4,47-985.3c26.6-53.2,73.6-108.3,116.5-132.9c69.5-38.8,110.4-40.9,1028.3-47l954.7-6.1l-4.1-3254.5l-6.1-3254.5H5000H1902.9l-6.1,4262.3c-2.1,2344.8,0,4274.6,6.1,4288.9c6.1,18.4,433.4,24.5,2034.1,24.5h2023.9V3503.7z M7539,3049.8l87.9-79.7l-515.2-2.1h-517.2v492.7v492.7l427.3-410.9C7258.9,3313.6,7489.9,3092.8,7539,3049.8z"/><path d="M4930.5,2567.4c-24.5-22.5-32.7-71.5-32.7-179.9v-147.2l-122.7-24.5c-276-51.1-482.5-196.3-578.5-408.9c-57.2-124.7-63.4-462-10.2-580.6c83.8-188.1,306.6-351.6,596.9-435.4l114.5-32.7V339.1V-80l-45,12.3c-59.3,18.4-175.8,108.3-224.9,175.8c-20.4,26.6-63.4,118.6-94,202.4c-49.1,134.9-65.4,157.4-134.9,192.2c-65.4,32.7-89.9,34.8-155.4,14.3c-124.7-36.8-169.7-110.4-159.4-257.6c20.4-314.8,306.6-599,678.7-668.5l134.9-26.6V-589c0-169.7,18.4-204.4,102.2-204.4c83.8,0,102.2,34.8,102.2,204.4v153.3l139,26.6c290.3,55.2,502.9,208.5,609.2,439.5c47,100.2,59.3,163.5,65.4,300.5c10.2,222.8-40.9,372.1-177.9,517.2c-110.4,118.6-212.6,173.8-457.9,249.4l-177.9,53.2v368c0,398.6,0,396.6,114.5,327.1c81.8-51.1,155.4-149.2,200.4-273.9c45-118.6,96.1-157.4,212.6-157.4c190.1,0,263.7,179.9,159.5,398.6c-98.1,212.6-290.3,353.7-554,402.7l-132.9,26.6v147.2c0,155.4-26.6,210.6-102.2,210.6C4979.6,2600.1,4946.8,2585.8,4930.5,2567.4z M4897.8,1547.3V1210l-73.6,30.7c-220.8,92-304.6,257.6-224.9,449.8c34.8,79.7,179.9,194.2,251.5,194.2h47V1547.3z M5351.6,584.4c259.6-179.9,141-592.8-192.2-670.5l-57.2-12.3v396.6v398.6l87.9-30.7C5237.1,649.9,5310.7,613,5351.6,584.4z"/><path d="M2796.3-1406.7c-149.2-89.9-184-318.9-69.5-453.8c104.3-124.7-4.1-118.6,2273.3-118.6c2277.3,0,2169-6.1,2273.2,118.6c114.5,134.9,79.7,363.9-69.5,453.8c-67.5,40.9-96.1,40.9-2203.7,40.9S2863.7-1365.8,2796.3-1406.7z"/><path d="M2843.3-2559.7c-85.9-36.8-169.7-141.1-186-231c-18.4-102.2,42.9-247.3,132.9-306.6l69.5-47h2138.3c2109.7,0,2138.3,0,2205.8,40.9c92,57.2,155.4,198.3,137,308.7c-16.3,98.1-96.1,198.3-188.1,235.1C7056.5-2518.8,2935.3-2518.8,2843.3-2559.7z"/></g></g>
</svg>