<?xml version="1.0" encoding="utf-8"?>
<!-- Svg Vector Icons : http://www.onlinewebfonts.com/icon -->
<!DOCTYPE svg PUBLIC "-//W3C//DTD SVG 1.1//EN" "http://www.w3.org/Graphics/SVG/1.1/DTD/svg11.dtd">
<svg version="1.1" xmlns="http://www.w3.org/2000/svg" xmlns:xlink="http://www.w3.org/1999/xlink" x="0px" y="0px" viewBox="0 0 1000 1000" enable-background="new 0 0 1000 1000" xml:space="preserve">
<metadata> Svg Vector Icons : http://www.onlinewebfonts.com/icon </metadata>
<g><path d="M714.3,745H285.7c-16.9,0-30.6,13.7-30.6,30.6c0,16.9,13.7,30.6,30.6,30.6h428.6c16.9,0,30.6-13.7,30.6-30.6C744.9,758.7,731.2,745,714.3,745z M806.2,132.5h-91.8V71.3h-82.5C605.3,34.8,556.5,10,500,10c-56.5,0-105.3,24.8-131.8,61.3h-82.5l0,61.2h-91.8c-67.6,0-122.5,54.8-122.5,122.5v612.5c0,67.7,54.8,122.5,122.5,122.5h612.3c67.6,0,122.5-54.8,122.5-122.5V255C928.6,187.3,873.8,132.5,806.2,132.5z M346.9,132.5h68c0-33.8,38.1-61.2,85-61.2c47,0,85,27.4,85,61.2h68V255H346.9V132.5z M867.4,867.5c0,33.8-27.4,61.3-61.2,61.3H193.8c-33.8,0-61.2-27.4-61.2-61.3V255c0-33.8,27.4-61.3,61.2-61.3h91.9v122.5h428.6V193.8h91.8c33.8,0,61.2,27.4,61.2,61.3V867.5z M714.3,591.9H285.7c-16.9,0-30.6,13.7-30.6,30.6c0,16.9,13.7,30.6,30.6,30.6h428.6c16.9,0,30.6-13.7,30.6-30.6C744.9,605.6,731.2,591.9,714.3,591.9z M714.3,438.8H285.7c-16.9,0-30.6,13.7-30.6,30.6c0,16.9,13.7,30.6,30.6,30.6h428.6c16.9,0,30.6-13.7,30.6-30.6C744.9,452.5,731.2,438.8,714.3,438.8z"/></g>
</svg>