<?xml version="1.0" encoding="utf-8"?>
<!-- Generator: Adobe Illustrator 16.0.0, SVG Export Plug-In . SVG Version: 6.00 Build 0)  -->
<!DOCTYPE svg PUBLIC "-//W3C//DTD SVG 1.1//EN" "http://www.w3.org/Graphics/SVG/1.1/DTD/svg11.dtd">
<svg version="1.1" id="Layer_1" xmlns="http://www.w3.org/2000/svg" xmlns:xlink="http://www.w3.org/1999/xlink" x="0px" y="0px"
	 width="128px" height="128px" viewBox="0 0 128 128" enable-background="new 0 0 128 128" xml:space="preserve">
<g>
	<g>
		<path fill="#282D33" d="M22.619,128c-2.509,0-5.037-0.437-7.467-1.335l-2.913-1.077l13.262-13.39l-1.886-7.101l-6.999-1.895
			L3.33,116.618l-1.078-2.972c-2.897-7.986-0.93-17.023,5.014-23.023c5.381-5.436,13.134-7.604,20.484-5.81l57.198-57.746
			c-1.783-7.414,0.362-15.236,5.741-20.666c5.953-6.011,14.923-7.999,22.851-5.067l2.914,1.077L103.191,15.8l1.886,7.104
			l7.002,1.894l13.285-13.414l1.077,2.972c2.896,7.987,0.928,17.024-5.015,23.022c-5.381,5.432-13.132,7.602-20.483,5.808
			L77.44,66.912l-2.842-2.814l25.173-25.413l1.154,0.351c6.271,1.908,13.037,0.194,17.659-4.473
			c4.077-4.116,5.865-9.985,4.936-15.631l-10.238,10.336l-11.479-3.104l-3.064-11.551l10.269-10.367
			C103.415,3.302,97.608,5.1,93.531,9.217c-4.63,4.675-6.33,11.522-4.437,17.87l0.34,1.137L28.921,89.316l-1.155-0.352
			c-6.27-1.909-13.036-0.196-17.658,4.473c-4.079,4.118-5.867,9.987-4.936,15.635l10.239-10.338l11.477,3.104l3.066,11.547
			l-10.27,10.368c5.587,0.945,11.399-0.855,15.477-4.972c4.63-4.673,6.33-11.521,4.436-17.872l-0.339-1.136l21.594-21.8l2.842,2.814
			L43.745,100.93c1.784,7.417-0.362,15.239-5.741,20.667C33.875,125.766,28.295,127.999,22.619,128z"/>
	</g>
	<g>
		<g>
			<path fill="#282D33" d="M103.132,126.6c-1.248,0-2.421-0.491-3.302-1.382L60.647,85.662c-1.805-1.821-1.805-4.787,0-6.611
				l0.016-0.016l-6.869-6.935l15.668-15.817l6.865,6.934c0.882-0.883,2.051-1.368,3.294-1.368c1.247,0,2.42,0.489,3.301,1.376
				l39.185,39.56c1.806,1.821,1.806,4.787,0.001,6.611l-15.674,15.821C105.554,126.108,104.38,126.6,103.132,126.6z M59.424,72.101
				l4.524,4.567c0.135,0.136,0.296,0.244,0.464,0.311l2.808,1.119l-3.73,3.768c-0.268,0.271-0.269,0.712,0,0.982l39.184,39.556
				c0.16,0.161,0.338,0.195,0.459,0.195s0.299-0.034,0.458-0.194l15.675-15.82c0.268-0.271,0.268-0.712,0-0.982l-39.184-39.56
				c-0.158-0.159-0.338-0.192-0.46-0.192c-0.123,0-0.303,0.033-0.462,0.194l-3.768,3.806l-1.12-2.865
				c-0.069-0.176-0.173-0.333-0.308-0.469l-4.502-4.546L59.424,72.101z"/>
		</g>
		<g>
			
				<rect x="6.796" y="40.213" transform="matrix(0.7038 0.7104 -0.7104 0.7038 41.7967 -15.8125)" fill="#282D33" width="66.128" height="4.001"/>
		</g>
		<g>
			<path fill="#282D33" d="M19.328,24.048L9.183,22.998L0.241,8.847l6.557-6.621l14.047,9.044l1.037,10.21L19.328,24.048z
				 M11.526,19.219l6.17,0.639l-0.636-6.267L7.358,7.345L5.323,9.401L11.526,19.219z"/>
		</g>
		<g>
			
				<rect x="64.999" y="95.649" transform="matrix(0.7037 0.7105 -0.7105 0.7037 95.4409 -33.5799)" fill="#282D33" width="45.971" height="4"/>
		</g>
		<g>
			
				<rect x="71.784" y="88.801" transform="matrix(0.7038 0.7104 -0.7104 0.7038 92.582 -40.4287)" fill="#282D33" width="45.969" height="4"/>
		</g>
		<g>
			
				<rect x="68.109" y="58.957" transform="matrix(0.7106 0.7036 -0.7036 0.7106 71.5099 -28.2617)" fill="#282D33" width="4" height="27.672"/>
		</g>
	</g>
</g>
</svg>
