<?xml version="1.0" encoding="utf-8"?>
<!-- Svg Vector Icons : http://www.onlinewebfonts.com/icon -->
<!DOCTYPE svg PUBLIC "-//W3C//DTD SVG 1.1//EN" "http://www.w3.org/Graphics/SVG/1.1/DTD/svg11.dtd">
<svg version="1.1" xmlns="http://www.w3.org/2000/svg" xmlns:xlink="http://www.w3.org/1999/xlink" x="0px" y="0px" viewBox="0 0 1000 1000" enable-background="new 0 0 1000 1000" xml:space="preserve">
<metadata> Svg Vector Icons : http://www.onlinewebfonts.com/icon </metadata>
<g><path d="M672.2,187.1c0,48.7,39.5,88.1,88.1,88.1s88.2-39.5,88.2-88.1c0-48.7-39.5-88.1-88.2-88.1S672.2,138.4,672.2,187.1z"/><path d="M627.1,291.2h70.1v35.1H831v-35.1h63.7v349.4L959.5,990H850.1l-90.3-364.3l-86,364.3H561.2l65.8-349.4V291.2z"/><path d="M923.6,291.2h51v296.3h-51V291.2L923.6,291.2z"/><path d="M549.8,297.6h51v296.3h-51V297.6L549.8,297.6z"/><path d="M412.3,542.9h188v51h-188V542.9z"/><path d="M630.5,144.9h97.8v24.2h-97.8V144.9z"/><path d="M147.5,10h200.9v200.9H147.5V10L147.5,10z"/><path d="M25.4,275.3h200.9v200.9H25.4V275.3z"/><path d="M286.6,275.3h200.9v200.9H286.6V275.3L286.6,275.3z"/></g>
</svg>