<svg data-name="Layer 1" xmlns="http://www.w3.org/2000/svg" width="497.02398" height="526.92738" viewBox="0 0 497.02398 526.92738" xmlns:xlink="http://www.w3.org/1999/xlink"><path d="M530.7857,261.05819a749.82767,749.82767,0,0,0-3.56311,199.40921c2.19211,18.85892-17.8266,32.91355-36.39145,36.88979s-38.87823,2.87815-55.11881,12.71216-22.57984,37.91667-5.52264,46.25431c46.29371,22.62856,109.02.98814,131.51282-45.37166,9.73111-20.05665-30.19739-38.49437-21.7597-59.12854a267.20647,267.20647,0,0,0,7.555-179.41714l9.22457-13.28114c-6.02956-7.7379-18.53662-9.32008-26.30313-3.32742S521.01109,274.2898,530.7857,261.05819Z" transform="translate(-351.48801 -186.53631)" fill="#002e7a"/><path d="M780.65749,408.7236c-8.133-6.76545-21.04551,1.54692-24.12861,11.66674s-.56682,21.06562-1.79386,31.57327-9.1936,22.0922-19.6451,20.45443a32.25171,32.25171,0,0,0-29.65075,52.65145c5.56789,8.48666,19.1301,7.19093,26.93743.70477s11.89607-16.27667,17.551-24.70556,14.64538-16.254,24.70952-14.93577c21.97167,2.87793,44.39474-15.4925,45.896-37.60094s-18.23266-43.34144-40.39169-43.46011l-5.045,10.63243C769.22254,417.531,763.34867,419.35766,780.65749,408.7236Z" transform="translate(-351.48801 -186.53631)" fill="#002e7a"/><path d="M687.31544,499.99181c-.01114.02939-.0198.06249-.03094.09219.03032-.06187.06064-.1219.09034-.18377a1.11078,1.11078,0,0,0,.01981-.1151C687.36742,499.85382,687.34391,499.92343,687.31544,499.99181Z" transform="translate(-351.48801 -186.53631)"/><path d="M846.84793,435.89621c-2.206-16.16227-7.75519-31.61388-13.82668-46.6775-18.522-45.32268-44.78991-81.1285-85.41294-106.217.88734-2.31981,1.758-4.64891,2.54691-7.02132,4.74111-18.7593,6.29982-40.25578-3.23-57.77938-16.243-22.31822-33.14753-28.21336-58.42539-30.98271-10.25012-.71563-20.54356-.7577-30.8141-.61848-10.51125.13892-21.2465,1.659-30.56164,6.80351-15.76842,8.21124-21.50762,21.58342-22.94134,36.56382A236.70292,236.70292,0,0,0,562.35,227.34351a153.94625,153.94625,0,0,0-51.25123,12.68874c-2.76719,1.1862-5.49726,2.46028-8.202,3.7789a196.24685,196.24685,0,0,1,20.04544-3.51778c25.11821-3.08153,43.31783-1.02779,65.43495,4.17709-9.68951,12.85489-19.58816,25.68347-27.01726,39.93-4.0654,9.89989,9.39064,18.4926,14.60264,25.496.87124,1.11257,1.06306,1.3081.92322,1.10205,1.89285,2.47265,4.35065,6.10707,4.84692,7.50954a24.02313,24.02313,0,0,1,.95168,11.96971c-2.92312,12.15164-15.17748,29.70215-25.06128,44.44834-8.43524,13.17758,2.779,25.78155,7.78489,30.82834,7.50335,7.92659,7.056,6.63086,9.07753,12.237.83721,4.71883.75182,5.51953-.383,10.58859-2.88043,8.22021-1.03213,4.5004-8.33438,17.06075-3.2783,5.56439-7.70631,10.97874-8.19762,17.6458.047,10.81817,11.12817,16.36029,19.95943,19.69212,4.96944,2.0231,10.25136,3.093,15.28824,4.8992.11448.06157.211.11448.31125.17079.19182.18006.383.3592.56124.55288.04517.07116.07425.1154.12437.1946.06064.10489.09282.16522.1448.25618a25.31866,25.31866,0,0,1,1.04636,4.1248c.0922.79761.18687,1.59522.27536,2.39345a113.247,113.247,0,0,1-.104,21.5299c-6.23856,25.53991,25.47278,21.27743,37.93628,23.40635,7.00647,1.1005,13.54514,3.89121,20.18157,6.26857,5.22685,2.42934,11.19067,3.89863,16.57407,1.08967,16.19291-7.02008,12.38554-32.92538,17.09942-46.84488.28588-.284.65344-.63889,1.10639-1.04945a89.445,89.445,0,0,1,14.18743-8.23259c6.92726-2.69789,12.55879-9.13817,12.73577-16.77548.17635-8.51382-4.37912-16.01934-8.15431-23.49886.30073-.21287.59341-.43717.90094-.64106,3.97506-2.59363,8.43524-4.325,12.73268-6.30137q.892-.37869,1.78271-.75708c.21534-.07425.77038-.29609,1.633-.68251,17.923-8.06459,38.89353-7.27379,29.34263-33.65988-2.55928-6.50031-2.011-6.94212-1.48136-7.94238,4.08272-5.18044,9.56575-7.61071,15.8105-10.88282,8.84858-4.33024,17.8766-8.36655,26.26419-13.56494,1.98382-1.21838,3.89029-2.55341,5.7949-3.88966,12.612,23.23464,21.57259,48.23683,24.42951,66.30062,1.73815,26.4752,1.80127,47.5701-2.01723,69.03193a137.43876,137.43876,0,0,0-33.32512-3.08339c-13.48635,1.8582-27.93244,2.555-40.09831,9.183-6.30848,3.60471-10.18762,11.16747-8.92345,18.26489-10.54095,2.6388-21.16729,4.93355-31.68844,7.65681-15.84143,4.1149-31.57891,8.75886-46.6413,15.21894-7.783,3.18363-15.47636,6.793-22.34917,11.656-16.76961-7.07825-33.18837-15.79163-51.2042-19.11727-22.7687-4.65324-38.15347,6.91612-52.41949,23.122-.31125.29361-.65034.55536-.97829.83041a17.63762,17.63762,0,0,1-1.60822.96654l-.04084.01918c-.28773.10117-.57732.19677-.86877.28371a17.949,17.949,0,0,1-2.49245-.75027c-1.02718-.39293-1.04079-.37963-.67819-.21874-.18439-.07735-.36817-.15625-.55257-.23328q-.27844-.09421-.54886-.20791c-.9158-.45728-1.63049-.5337-6.2961-2.71429-8.32262-3.6898-16.28758-8.8294-25.40781-10.24455a44.19875,44.19875,0,0,0-17.53937.74408c-5.14208,1.22179-10.46546,2.73842-14.52652,6.27661-7.353,7.6565-6.85549,10.60747-15.84577,17.489-8.49031,7.00554-26.56555,7.48262-39.89782,12.63521a208.91451,208.91451,0,0,1-18.3574-33.335,215.196,215.196,0,0,1-13.4449-49.66344c11.54771,10.77206,25.69,16.63162,40.88911,5.358,18.59378-13.555,23.13131-34.85877,38.05261-46.49558,4.16007-3.19941,5.21757-5.01925,13.13551-8.73318l.18687-.08044c.19677-.08044.43-.17635.74811-.30753,6.82083-2.757,13.76851-5.37258,19.96994-9.39249,10.919-7.40806,24.20675-22.98651,19.67232-37.03162-2.65334-6.82764-8.37707-11.59226-13.45975-16.67061,14.07049-12.62779,27.84271-28.11435,27.92316-47.97106a30.11218,30.11218,0,0,0-3.02894-13.25029c.11138.26453.21967.51978.21162.49874-.19058-.943-4.11366-8.52063-7.25707-12.70236-4.60683-7.47457-15.24864-19.60734-11.36331-25.55847,6.67108-5.58265,13.41024-11.13529,18.93534-17.91405,2.80308-3.53727,6.05416-7.25336,6.39449-11.95022.44181-8.66976-6.75276-15.188-10.56137-22.40053,6.0356,14.92688,14.28273,20.47054-1.39349,32.83752-16.5716,14.80528-32.75027,12.6578-16.02583,42.83549,10.47659,18.93565,12.724,21.79566,8.24774,35.063-2.64777,7.60978-8.01694,13.67075-18.81963,23.6022-6.38274,5.88028-14.90584,11.58545-10.52239,21.47916,2.27279,5.35679,7.34247,8.77649,11.18139,12.94708.586.61662,1.10762,1.28769,1.641,1.94885.39416.5798,1.1268,1.658,1.57913,2.4807l.013.04022c-.00123.03837.00557.07611.00372.11448a20.506,20.506,0,0,1-.62064,2.21647c-1.51416,3.87636-8.59364,13.86814-20.79788,18.64081-5.25965,2.71459-10.83735,4.88837-15.74057,8.23939A80.80111,80.80111,0,0,0,436.069,471.21814c-6.7837,9.95156-10.18638,21.78514-16.96267,31.76671-9.61153,14.19053-21.7211,21.2861-40.373,8.68461-.98943-.65158-1.95906-1.33007-2.92189-2.01909-1.33533-10.45679-1.96215-20.97794-2.31981-32.32083-1.193-64.52039,18.16929-133.76023,57.98915-178.89294,16.90635-18.50839,33.21188-28.14684,57.38273-39.77128,9.26441-3.42032,28.253-10.43143,40.95842-14.63388-14.68,2.33033-29.41195,4.44656-43.92052,7.71373-27.74618,7.612-54.99858,20.1002-75.07062,41.22139a173.30252,173.30252,0,0,0-39.818,65.27716c-15.22884,42.44411-19.65128,73.993-19.522,116.08844.9653,30.65167,5.08577,61.77733,16.57964,90.38825,16.71763,40.09057,42.894,77.61629,78.55869,102.96376,22.32194,14.6837,46.97978,26.49068,72.95687,32.97737,26.615,6.04611,53.64839,10.63933,80.90573,12.37687C650.72811,716.136,702.3438,702.318,742.4025,671.38387c11.37445-8.73039,22.86152-17.4184,33.13268-27.45411,9.79965-9.76686,18.31842-20.7391,26.39166-31.95019,23.87447-33.73351,41.00235-72.99832,45.05537-114.36884C848.63,477.13617,849.43259,456.31756,846.84793,435.89621ZM720.10408,295.06393c-9.78356,22.91194-23.97471,47.51657-38.37871,79.79347-4.10872,9.05928-7.64072,18.3605-11.12013,27.67626-4.41068-1.16424-7.44828-8.85353-11.58979-24.42766-5.2516-18.47559-9.65114-37.19157-15.433-55.51587-4.06416-13.06063-8.44328-26.04082-11.56441-39.37q-3.45653-13.92863-5.681-28.12425l-1.835-20.20309c.43067-8.9086,3.31885-15.70823,7.81678-19.50724,4.38963-4.07839,14.02407-8.18123,26.48881-7.827,32.30042-.207,50.48951-.91641,67.65452,19.63829,3.545,5.535,2.18616,3.07844,4.42677,12.58911.6887,4.12233.54081,22.24521-1.69856,29.31572-.27227,1.064-.59094,2.12459-.89043,3.18673m-66.89651-4.45709c-4.09505-4.69137,2.11314-23.77978,2.11314-23.77978.15408-.3326.29083-.66272.461-.99779,3.02461-6.34406,10.325-8.41358,15.96953-11.77666-6.04426,1.31027-12.79022,1.56676-17.87537,5.44405a29.684,29.684,0,0,0-4.83393,5.24634s-7.99118,14.64211-7.66052,21.28764a53.87294,53.87294,0,0,0-.29392,5.54058c1.02347,19.21256,23.25073,29.31386,39.042,19.0659a31.59959,31.59959,0,0,0,6.99533-5.238s8.8314-10.89789,10.33923-21.44822c.896-9.8176-3.05678-19.46379-13.878-24.42209a20.65057,20.65057,0,0,0-11.16344-2.22452c-.98944.05693-1.97578.15841-2.95593.29083.48884.133.97892.26236,1.46652.39973a21.747,21.747,0,0,1,15.68055,15.369,14.87876,14.87876,0,0,1,.55895,5.56427s-13.78558,19.92351-15.73334,19.36924a15.73279,15.73279,0,0,1-1.96525.69179c-5.8611,1.76477-12.018-1.07358-14.39844-4.74172a16.85257,16.85257,0,0,1-1.8681-3.64061m18.23179,7.69054,73.51253,111.722c-18.78931,7.92257-14.23508,20.98072-13.12684,30.61392.02661.56062.05321,1.12247.05631,1.684-2.57723.92384-5.238,1.61223-7.86225,2.38787-22.07875,6.776-44.7534,11.70983-46.46618,27.1834-.79081-.40406-1.61626-.79173-2.50421-1.14846-1.35452-.55752-2.74306-1.03151-4.14337-1.45413a44.75247,44.75247,0,0,1,6.57765,6.02013c.01733.017.03032.03712.04765.05445a31.51539,31.51539,0,0,0,3.54933,11.38249c-.01856.12747-.02165.258-.04331.38426A20.05534,20.05534,0,0,1,681.55149,475.85c-5.19963,3.709-8.2496,4.94221-14.52962,6.18163-7.71745,1.71031-17.3853-.008-22.30152-5.32988-5.35432-5.12011-6.26764-9.03019-3.5747-16.99608a29.8587,29.8587,0,0,1,8.98843-13.09064c4.99233-4.11923,11.07-6.64262,16.56912-9.99426-8.54476,1.8647-17.704,2.87084-24.91649,8.2527-9.24955,6.84218-16.30986,19.01424-12.94616,30.68818,5.134,16.15485,21.75637,23.05334,37.281,20.32636-3.65452,9.99178-3.29749,21.08128-6.24289,31.28747l-.01237.03373c-5.08268-1.37215-9.88195-3.75415-15.01413-5.00007a99.7474,99.7474,0,0,0-21.29352-2.78112c-5.83511-.47677-7.262-.39756-8.874-.65126a112.99038,112.99038,0,0,0-1.16331-32.31156c-1.62863-7.46808-6.69832-14.31706-14.09771-16.79838-9.44818-3.37329-17.014-4.63406-21.85043-7.32359,3.37979-5.86141,7.293-11.42519,10.21176-17.54927,7.33442-14.05192,8.3548-32.58568-2.90765-44.88644-7.40249-8.17164-11.88433-11.50842-13.052-14.94359.03651-.133.04579-.27226.08787-.40406,5.01275-7.76757,23.674-36.2798,24.544-54.59915a36.23741,36.23741,0,0,0-4.18606-17.42954,58.60324,58.60324,0,0,0-10.2495-11.70488c-4.21143-3.89956-10.01994-7.64567-12.81064-11.73086a7.95763,7.95763,0,0,1-.81494-1.56181,39.40271,39.40271,0,0,1,1.65277-4.73616c4.74853-10.36769,12.58788-24.95423,19.80906-37.97155.79514.19059,1.58161.375,2.38788.5733,3.98991.97428,7.96,2.0194,11.92145,3.09794.16027,2.23287.34776,4.46853.57547,6.69955a225.77781,225.77781,0,0,0,11.88185,49.16346c3.46147,9.72848,15.15149,35.07843,16.73805,39.58378,8.09429,19.68748,12.78218,33.10638,21.57816,51.14759,3.30492,6.85981,9.38692,14.80126,17.93354,13.32608,4.32652-.89723,7.49221-4.32961,10.06325-7.70971,4.02023-5.25439,7.29358-11.02824,10.82373-16.61151-10.82806,12.04088-17.27577,18.70763-22.06019,18.58388,1.12494-1.69516,2.2536-3.38783,3.3705-5.08825,19.76947-31.25869,44.96936-59.77866,62.37322-92.47107,11.091,6.94118,20.84614,14.22239,27.74989,21.54815,12.534,11.48212,24.07,27.68678,33.60543,44.97864C783.851,377.8356,768.30657,381.13958,753.14765,387.24387Zm-6.07644,251.77585c-16.41072,13.59712-29.21888,23.81073-52.6998,35.34049-10.91222,6.1872-47.45191,16.09081-59.65305,16.33337-30.94033,2.82134-58.45509-.89228-82.29985-5.0177-36.90167-6.20948-59.75762-14.09524-90.07979-32.74347-18.74352-10.77051-38.66521-33.40679-53.61065-55.756a112.42232,112.42232,0,0,1,20.01265-2.23009c10.96915-.16769,21.79164-2.27959,30.54184-9.30153,4.09571-2.74058,8.12522-7.60173,11.18262-10.43947,6.81217-3.81107,15.86928-3.25046,19.1909-2.95035,8.981,1.60265,15.51472,7.39073,26.59216,13.68251,5.14579,2.92622,10.37635,6.39542,16.46764,6.64324,10.46793.19244,18.246-7.93712,24.99941-14.93925,4.86362-4.58363,1.86624-2.18,9.31143-6.91118a31.73109,31.73109,0,0,1,3.13289-1.71588,26.75717,26.75717,0,0,1,4.29682-1.2289l.19368-.034c16.00294-1.08906,31.64512,7.68589,48.18826,14.679,7.452,2.79875,15.55617,9.56173,23.6022,4.98119,5.36545-3.46146,2.47946-2.12025,10.48835-6.83661,13.6033-7.19179,27.258-11.83853,46.97978-18.4069,11.99013-3.81417,24.09846-7.2546,36.14181-10.89582,5.31472-1.84366,11.414-2.39747,15.88413-6.00838,4.21267-3.80953,3.42187-10.13564.49008-14.51755a20.07659,20.07659,0,0,1-1.26108-2.13294c-.00124-.091-.01052-.1813-.00928-.27226.013-.08725.02351-.14263.03774-.25185.04951-.14232.08663-.25122.12128-.35456,2.44172-2.32167-.29763-1.18187,8.16483-5.42888,4.61055-1.98722,31.61295-10.96977,41.58957-10.22692,5.45642-.34806,10.924-.49688,16.39215-.50988a219.4166,219.4166,0,0,1-12.10647,40.03891C798.11143,577.613,775.65893,616.29929,747.07121,639.01972Z" transform="translate(-351.48801 -186.53631)"/></svg>